<svg aria-hidden="true" style="position: absolute; width: 0; height: 0; overflow: hidden;" version="1.1" xmlns="http://www.w3.org/2000/svg" xmlns:xlink="http://www.w3.org/1999/xlink">
<defs>
<symbol id="icon-phone" viewBox="0 0 32 32">
<path fill="none" stroke="#9da4bd" style="stroke: var(--color1, #9da4bd)" stroke-linejoin="round" stroke-linecap="round" stroke-miterlimit="4" stroke-width="1.3333" d="M26.666 21.337v3.218c0.002 0.604-0.25 1.181-0.695 1.589s-1.042 0.61-1.643 0.556c-3.301-0.359-6.471-1.487-9.257-3.293-2.592-1.647-4.789-3.844-6.436-6.436-1.813-2.798-2.941-5.984-3.293-9.3-0.054-0.6 0.146-1.195 0.552-1.639s0.98-0.698 1.582-0.699h3.218c1.077-0.011 1.995 0.779 2.145 1.845 0.136 1.030 0.388 2.041 0.751 3.014 0.295 0.784 0.106 1.668-0.483 2.263l-1.362 1.362c1.527 2.685 3.75 4.909 6.436 6.436l1.362-1.362c0.595-0.589 1.479-0.777 2.263-0.483 0.973 0.363 1.984 0.615 3.014 0.751 1.079 0.152 1.872 1.088 1.845 2.177z"></path>
</symbol>
<symbol id="icon-map-pin" viewBox="0 0 32 32">
<path fill="none" stroke="#9da4bd" style="stroke: var(--color1, #9da4bd)" stroke-linejoin="round" stroke-linecap="round" stroke-miterlimit="4" stroke-width="1.3333" d="M26.667 13.818c0 7.636-10.667 14.182-10.667 14.182s-10.667-6.545-10.667-14.182c0-5.422 4.776-9.818 10.667-9.818s10.667 4.396 10.667 9.818v0z"></path>
<path fill="none" stroke="#9da4bd" style="stroke: var(--color1, #9da4bd)" stroke-linejoin="round" stroke-linecap="round" stroke-miterlimit="4" stroke-width="1.3333" d="M16 18.667c2.209 0 4-1.791 4-4s-1.791-4-4-4-4 1.791-4 4c0 2.209 1.791 4 4 4z"></path>
</symbol>
<symbol id="icon-mail" viewBox="0 0 32 32">
<path fill="none" stroke="#9da4bd" style="stroke: var(--color1, #9da4bd)" stroke-linejoin="round" stroke-linecap="round" stroke-miterlimit="4" stroke-width="1.3333" d="M6.4 6.667h19.2c1.32 0 2.4 1.050 2.4 2.333v14c0 1.283-1.080 2.333-2.4 2.333h-19.2c-1.32 0-2.4-1.050-2.4-2.333v-14c0-1.283 1.080-2.333 2.4-2.333z"></path>
<path fill="none" stroke="#9da4bd" style="stroke: var(--color1, #9da4bd)" stroke-linejoin="round" stroke-linecap="round" stroke-miterlimit="4" stroke-width="1.3333" d="M26.667 9.333l-10.667 8-10.667-8"></path>
</symbol>
<symbol id="icon-close" viewBox="0 0 32 32">
<path d="M31.439 3.166l-3.166-3.166-12.554 12.552-12.552-12.552-3.166 3.166 12.552 12.552-12.552 12.554 3.166 3.166 12.552-12.554 12.554 12.554 3.166-3.166-12.554-12.554 12.554-12.552z"></path>
</symbol>
<symbol id="icon-Copyright" viewBox="0 0 271 32">
<path fill="#9da4bd" style="fill: var(--color1, #9da4bd)" d="M47.738 10.944c-0.026-0-0.057-0.001-0.087-0.001-0.748 0-1.459 0.161-2.1 0.449l0.032-0.013c-0.638 0.299-1.171 0.726-1.584 1.252l-0.007 0.009c-0.435 0.544-0.768 1.203-0.996 1.984-0.219 0.746-0.344 1.603-0.344 2.49 0 0.043 0 0.085 0.001 0.128l-0-0.006c0 1.299 0.183 2.417 0.55 3.358 0.365 0.932 0.924 1.649 1.673 2.155 0.747 0.495 1.696 0.745 2.842 0.745 0.71 0 1.402-0.070 2.074-0.207 0.835-0.174 1.534-0.368 2.215-0.6l-0.13 0.039v2.338c-0.678 0.267-1.365 0.461-2.061 0.585-0.677 0.116-1.457 0.182-2.253 0.182-0.054 0-0.108-0-0.162-0.001l0.008 0c-1.711 0-3.132-0.354-4.262-1.067-1.122-0.72-1.992-1.744-2.506-2.957l-0.016-0.043c-0.55-1.291-0.826-2.803-0.826-4.538 0-1.269 0.177-2.43 0.527-3.484 0.352-1.054 0.864-1.963 1.536-2.726 0.672-0.772 1.502-1.365 2.487-1.777 0.992-0.42 2.127-0.629 3.403-0.629 0.841 0 1.664 0.094 2.475 0.286 0.817 0.183 1.574 0.448 2.268 0.789l-0.96 2.27c-0.497-0.243-1.101-0.484-1.724-0.683l-0.1-0.027c-0.585-0.189-1.258-0.299-1.956-0.299-0.005 0-0.011 0-0.016 0h0.001zM71.119 19.23c0 1.054-0.137 1.988-0.412 2.807-0.263 0.805-0.675 1.497-1.207 2.078l0.004-0.004c-0.521 0.548-1.155 0.983-1.865 1.269l-0.036 0.013c-0.742 0.29-1.579 0.435-2.511 0.435-0.87 0-1.668-0.145-2.394-0.435-0.74-0.305-1.369-0.739-1.888-1.28l-0.002-0.002c-0.53-0.579-0.948-1.27-1.214-2.032l-0.013-0.041c-0.277-0.795-0.436-1.712-0.436-2.666 0-0.050 0-0.099 0.001-0.149l-0 0.007c0-1.399 0.241-2.581 0.721-3.552 0.464-0.948 1.18-1.713 2.062-2.223l0.025-0.013c0.9-0.512 1.973-0.768 3.221-0.768 1.167 0 2.197 0.256 3.093 0.768 0.892 0.512 1.591 1.259 2.095 2.236s0.757 2.161 0.757 3.552zM61.92 19.23c0 0.924 0.111 1.715 0.331 2.372 0.23 0.655 0.582 1.161 1.056 1.513 0.474 0.341 1.084 0.514 1.833 0.514 0.747 0 1.359-0.171 1.835-0.516 0.471-0.35 0.819-0.853 1.041-1.51s0.333-1.451 0.333-2.372c0-0.926-0.111-1.707-0.333-2.349-0.222-0.651-0.57-1.143-1.043-1.478-0.474-0.343-1.088-0.516-1.843-0.516-1.116 0-1.929 0.373-2.441 1.122s-0.768 1.822-0.768 3.221zM85.417 12.672c1.504 0 2.709 0.55 3.62 1.651 0.917 1.099 1.376 2.735 1.376 4.905 0 1.436-0.213 2.645-0.642 3.631-0.42 0.979-1.013 1.719-1.777 2.223-0.72 0.469-1.601 0.748-2.548 0.748-0.034 0-0.069-0-0.103-0.001l0.005 0c-0.642 0-1.201-0.085-1.675-0.254-0.465-0.16-0.868-0.382-1.225-0.66l0.009 0.007c-0.321-0.261-0.6-0.555-0.838-0.881l-0.009-0.013h-0.16c0.038 0.305 0.073 0.646 0.105 1.020 0.036 0.367 0.055 0.704 0.055 1.009v5.167h-2.703v-18.308h2.199l0.378 1.754h0.128c0.235-0.358 0.523-0.691 0.858-0.996 0.343-0.307 0.757-0.546 1.237-0.723 0.491-0.183 1.058-0.275 1.707-0.275zM84.693 14.876c-0.74 0-1.335 0.149-1.788 0.448-0.442 0.288-0.768 0.727-0.973 1.316-0.198 0.589-0.305 1.325-0.32 2.21v0.38c0 0.939 0.094 1.737 0.286 2.394 0.198 0.651 0.523 1.146 0.973 1.491 0.459 0.335 1.077 0.503 1.856 0.503 0.657 0 1.201-0.179 1.628-0.54 0.435-0.358 0.759-0.87 0.975-1.536 0.213-0.661 0.32-1.446 0.32-2.347 0-1.367-0.243-2.432-0.734-3.187-0.48-0.755-1.222-1.133-2.223-1.133zM96.307 12.915h2.933l2.603 7.243c0.113 0.329 0.218 0.653 0.309 0.973 0.098 0.314 0.183 0.623 0.252 0.928 0.077 0.307 0.137 0.612 0.183 0.917h0.068c0.11-0.559 0.221-1.006 0.349-1.445l-0.029 0.116c0.145-0.497 0.307-0.994 0.482-1.489l2.496-7.243h2.901l-5.444 14.426c-0.297 0.807-0.688 1.504-1.17 2.128l0.014-0.018c-0.421 0.56-0.959 1.009-1.579 1.317l-0.026 0.012c-0.619 0.305-1.325 0.459-2.121 0.459-0.382 0-0.713-0.023-0.996-0.070-0.29-0.037-0.535-0.082-0.776-0.136l0.055 0.010v-2.155c0.402 0.095 0.863 0.149 1.338 0.149 0.010 0 0.019-0 0.029-0h-0.001c0.478 0 0.896-0.094 1.246-0.286 0.352-0.192 0.651-0.463 0.896-0.813 0.243-0.343 0.446-0.738 0.606-1.18l0.448-1.195-5.067-12.649zM121.901 12.674c0.48 0.003 0.948 0.050 1.401 0.136l-0.048-0.008-0.252 2.519c-0.173-0.048-0.376-0.084-0.585-0.102l-0.012-0.001c-0.184-0.020-0.399-0.033-0.617-0.034h-0.002c-0.48 0-0.939 0.079-1.374 0.239-0.899 0.323-1.599 1.005-1.94 1.868l-0.008 0.022c-0.192 0.476-0.286 1.024-0.286 1.651v6.635h-2.705v-12.685h2.108l0.367 2.236h0.128c0.25-0.452 0.563-0.864 0.939-1.237 0.373-0.375 0.802-0.674 1.282-0.896 0.491-0.228 1.024-0.341 1.604-0.341zM132.988 12.915v12.685h-2.692v-12.685h2.692zM131.659 8.058c0.414 0 0.768 0.111 1.067 0.333 0.305 0.22 0.459 0.602 0.459 1.146 0 0.533-0.154 0.917-0.459 1.146-0.283 0.208-0.638 0.333-1.022 0.333-0.016 0-0.031-0-0.047-0.001l0.002 0c-0.016 0.001-0.035 0.001-0.054 0.001-0.388 0-0.748-0.125-1.040-0.337l0.005 0.004c-0.29-0.23-0.435-0.612-0.435-1.146 0-0.544 0.145-0.926 0.435-1.146 0.287-0.209 0.646-0.334 1.034-0.334 0.019 0 0.038 0 0.056 0.001l-0.003-0zM145.163 31.238c-1.717 0-3.036-0.309-3.951-0.93-0.917-0.619-1.376-1.485-1.376-2.601 0-0.779 0.245-1.44 0.734-1.982 0.491-0.533 1.188-0.905 2.097-1.109-0.361-0.166-0.662-0.408-0.892-0.707l-0.004-0.006c-0.228-0.296-0.365-0.672-0.365-1.080 0-0.003 0-0.006 0-0.008v0c0-0.474 0.134-0.879 0.401-1.216 0.267-0.335 0.668-0.661 1.203-0.973-0.674-0.291-1.222-0.766-1.596-1.361l-0.009-0.015c-0.376-0.617-0.598-1.363-0.598-2.161 0-0.034 0-0.067 0.001-0.101l-0 0.005c0-0.917 0.196-1.696 0.587-2.336 0.403-0.656 0.987-1.167 1.683-1.469l0.024-0.009c0.747-0.343 1.653-0.516 2.716-0.516 0.228 0 0.478 0.015 0.745 0.047 0.275 0.021 0.527 0.053 0.757 0.090 0.235 0.032 0.416 0.064 0.538 0.105h4.388v1.5l-2.155 0.401c0.423 0.603 0.676 1.351 0.676 2.159 0 0.014-0 0.028-0 0.042l0-0.002c0 1.316-0.454 2.351-1.363 3.106-0.9 0.749-2.146 1.124-3.735 1.124-0.413-0.016-0.797-0.049-1.176-0.099l0.065 0.007c-0.25 0.146-0.459 0.334-0.625 0.556l-0.004 0.005c-0.136 0.183-0.218 0.413-0.218 0.663 0 0.005 0 0.009 0 0.014v-0.001c0 0.205 0.073 0.373 0.218 0.503 0.145 0.122 0.358 0.213 0.64 0.275 0.29 0.062 0.642 0.092 1.054 0.092h2.189c1.391 0 2.453 0.294 3.187 0.883 0.732 0.587 1.099 1.451 1.099 2.588 0 1.444-0.597 2.556-1.788 3.334-1.19 0.789-2.906 1.182-5.143 1.182zM145.267 29.346c0.939 0 1.73-0.092 2.372-0.275 0.64-0.183 1.126-0.446 1.455-0.789 0.303-0.301 0.491-0.718 0.491-1.178 0-0.009-0-0.017-0-0.026l0 0.001c0-0.414-0.1-0.73-0.307-0.951s-0.516-0.373-0.928-0.459c-0.423-0.081-0.91-0.127-1.407-0.127-0.045 0-0.091 0-0.136 0.001l0.007-0h-1.993c-0.497 0-0.939 0.077-1.318 0.23-0.365 0.146-0.669 0.382-0.892 0.682l-0.004 0.005c-0.193 0.287-0.308 0.641-0.308 1.021 0 0.020 0 0.039 0.001 0.059l-0-0.003c0 0.58 0.256 1.026 0.768 1.34 0.518 0.314 1.252 0.469 2.199 0.469zM145.794 19.469c0.787 0 1.372-0.213 1.754-0.64 0.382-0.435 0.572-1.045 0.572-1.835 0-0.853-0.198-1.498-0.595-1.924-0.39-0.427-0.971-0.64-1.741-0.64-0.757 0-1.333 0.215-1.73 0.651-0.39 0.435-0.585 1.082-0.585 1.937 0 0.772 0.194 1.376 0.585 1.811 0.397 0.427 0.977 0.64 1.741 0.64zM161.946 7.772v4.48c0 0.465-0.015 0.919-0.045 1.363-0.023 0.444-0.051 0.787-0.081 1.030h0.149c0.267-0.442 0.597-0.806 0.986-1.088 0.388-0.29 0.826-0.508 1.306-0.653 0.491-0.145 1.009-0.218 1.557-0.218 0.971 0 1.796 0.164 2.475 0.491 0.683 0.322 1.201 0.823 1.559 1.502 0.367 0.681 0.55 1.564 0.55 2.647v8.273h-2.692v-7.77c0-0.986-0.203-1.722-0.608-2.21-0.405-0.497-1.030-0.747-1.877-0.747-0.819 0-1.468 0.173-1.95 0.516-0.474 0.337-0.813 0.836-1.020 1.502-0.207 0.657-0.309 1.459-0.309 2.406v6.302h-2.692v-17.828h2.692zM183.586 23.652c0.352 0 0.7-0.030 1.043-0.092 0.343-0.068 0.657-0.149 0.939-0.241v2.039c-0.299 0.13-0.683 0.241-1.156 0.333-0.436 0.087-0.938 0.137-1.451 0.137-0.010 0-0.019-0-0.029-0h0.001c-0.719 0-1.365-0.117-1.937-0.354-0.587-0.259-1.058-0.693-1.356-1.235l-0.007-0.015c-0.335-0.587-0.503-1.402-0.503-2.441v-6.816h-1.73v-1.203l1.856-0.951 0.881-2.716h1.696v2.818h3.633v2.052h-3.633v6.784c0 0.64 0.162 1.118 0.482 1.429 0.32 0.316 0.745 0.469 1.271 0.469zM214.101 25.6h-11.343v-2.027l4.343-4.401c0.841-0.855 1.532-1.594 2.074-2.212 0.542-0.625 0.943-1.216 1.203-1.775 0.267-0.559 0.401-1.165 0.401-1.822 0-0.811-0.235-1.421-0.7-1.835-0.465-0.42-1.082-0.629-1.845-0.629-0.725 0-1.397 0.145-2.016 0.435-0.725 0.352-1.35 0.757-1.918 1.229l0.016-0.013-1.476-1.777c0.465-0.397 0.96-0.759 1.489-1.088 0.533-0.329 1.131-0.589 1.788-0.781 0.657-0.198 1.406-0.299 2.244-0.299 1.062 0 1.98 0.192 2.752 0.576 0.77 0.373 1.363 0.896 1.775 1.568 0.42 0.672 0.629 1.455 0.629 2.349 0 0.902-0.179 1.734-0.538 2.498-0.426 0.868-0.939 1.615-1.543 2.277l0.007-0.008c-0.774 0.852-1.548 1.64-2.351 2.397l-0.021 0.020-2.897 2.831v0.126h7.927v2.359zM232.224 17.212c0.001 0.055 0.001 0.121 0.001 0.187 0 1.219-0.117 2.41-0.34 3.564l0.019-0.117c-0.207 1.062-0.535 1.963-0.986 2.705-0.429 0.717-1.027 1.293-1.74 1.684l-0.024 0.012c-0.725 0.388-1.604 0.582-2.637 0.582-1.291 0-2.355-0.339-3.196-1.020-0.841-0.687-1.463-1.673-1.869-2.955-0.403-1.291-0.606-2.837-0.606-4.642 0-1.803 0.183-3.345 0.55-4.629 0.373-1.291 0.977-2.278 1.809-2.965 0.834-0.689 1.937-1.033 3.311-1.033 1.299 0 2.368 0.343 3.209 1.030 0.849 0.681 1.474 1.664 1.879 2.957 0.414 1.284 0.619 2.831 0.619 4.64zM223.563 17.212c0 1.414 0.092 2.594 0.275 3.541 0.19 0.947 0.503 1.658 0.939 2.133 0.435 0.463 1.015 0.698 1.741 0.698 0.727 0 1.308-0.235 1.743-0.7s0.749-1.173 0.939-2.121c0.198-0.947 0.299-2.131 0.299-3.552 0-1.404-0.096-2.581-0.286-3.529-0.192-0.947-0.506-1.658-0.941-2.131-0.435-0.482-1.020-0.721-1.754-0.721-0.732 0-1.316 0.239-1.751 0.721-0.429 0.474-0.738 1.184-0.928 2.133-0.183 0.945-0.275 2.123-0.275 3.526zM250.347 25.6h-11.343v-2.027l4.341-4.401c0.841-0.855 1.532-1.594 2.076-2.212 0.542-0.625 0.943-1.216 1.203-1.775 0.267-0.559 0.401-1.165 0.401-1.822 0-0.811-0.235-1.421-0.7-1.835-0.465-0.42-1.082-0.629-1.845-0.629-0.725 0-1.397 0.145-2.016 0.435-0.725 0.352-1.35 0.757-1.918 1.228l0.015-0.012-1.478-1.777c0.467-0.397 0.964-0.759 1.491-1.088 0.514-0.318 1.108-0.585 1.736-0.768l0.051-0.013c0.655-0.198 1.404-0.299 2.244-0.299 1.062 0 1.98 0.192 2.75 0.576 0.772 0.373 1.365 0.896 1.777 1.568 0.42 0.672 0.629 1.455 0.629 2.349 0 0.902-0.179 1.734-0.538 2.498-0.425 0.868-0.938 1.615-1.543 2.277l0.007-0.007c-0.663 0.74-1.455 1.547-2.372 2.417l-2.899 2.831v0.126h7.93v2.359zM268.469 17.212c0.001 0.055 0.001 0.121 0.001 0.187 0 1.219-0.117 2.41-0.34 3.564l0.019-0.117c-0.207 1.062-0.535 1.963-0.986 2.705-0.429 0.717-1.027 1.293-1.74 1.684l-0.024 0.012c-0.727 0.388-1.604 0.582-2.637 0.582-1.291 0-2.355-0.339-3.196-1.020-0.841-0.687-1.463-1.673-1.869-2.955-0.403-1.291-0.606-2.837-0.606-4.642 0-1.803 0.183-3.345 0.548-4.629 0.375-1.291 0.979-2.278 1.811-2.965 0.832-0.689 1.937-1.033 3.311-1.033 1.299 0 2.368 0.343 3.209 1.030 0.849 0.681 1.474 1.664 1.879 2.957 0.412 1.284 0.619 2.831 0.619 4.64zM259.808 17.212c0 1.414 0.092 2.594 0.273 3.541 0.192 0.947 0.506 1.658 0.941 2.133 0.435 0.463 1.015 0.698 1.741 0.698s1.308-0.235 1.743-0.7c0.435-0.465 0.749-1.173 0.939-2.121 0.198-0.947 0.299-2.131 0.299-3.552 0-1.404-0.096-2.581-0.286-3.529-0.192-0.947-0.506-1.658-0.941-2.131-0.435-0.482-1.020-0.721-1.754-0.721-0.732 0-1.316 0.239-1.751 0.721-0.429 0.474-0.738 1.184-0.93 2.133-0.181 0.945-0.273 2.123-0.273 3.526zM12.646 13.406c1.638 0.077 2.061 1.472 2.086 2.125h2.291c-0.102-2.534-1.907-4.083-4.416-4.083-2.829 0-4.928 1.779-4.928 5.798 0 2.483 1.19 5.427 4.915 5.427 2.842 0 4.365-2.112 4.403-3.776h-2.291c-0.038 0.755-0.576 1.766-2.086 1.843-1.677-0.051-2.381-1.357-2.381-3.494 0-3.699 1.638-3.814 2.406-3.84zM12.8 4.267c-7.066 0-12.8 5.734-12.8 12.8s5.734 12.8 12.8 12.8 12.8-5.734 12.8-12.8-5.734-12.8-12.8-12.8zM12.8 27.307c-5.652-0.007-10.233-4.588-10.24-10.239v-0.001c0-5.645 4.595-10.24 10.24-10.24s10.24 4.595 10.24 10.24-4.595 10.24-10.24 10.24z"></path>
</symbol>
<symbol id="icon-facebook" viewBox="0 0 32 32">
<path d="M21.328 5.312h2.923v-5.088c-1.232-0.143-2.66-0.224-4.107-0.224-0.052 0-0.104 0-0.157 0l0.008-0c-4.213 0-7.099 2.65-7.099 7.52v4.48h-4.646v5.688h4.646v14.312h5.698v-14.31h4.461l0.707-5.688h-5.168v-3.922c0-1.643 0.443-2.768 2.734-2.768z"></path>
</symbol>
<symbol id="icon-instagram" viewBox="0 0 32 32">
<path d="M31.968 9.408c-0.074-1.701-0.349-2.869-0.742-3.882-0.424-1.111-1.054-2.059-1.85-2.837l-0.001-0.001c-0.78-0.792-1.724-1.419-2.778-1.827l-0.054-0.018c-1.019-0.394-2.181-0.667-3.882-0.742-1.712-0.082-2.256-0.101-6.602-0.101-4.344 0-4.888 0.019-6.595 0.094-1.699 0.074-2.869 0.349-3.88 0.742-1.112 0.424-2.060 1.054-2.839 1.85l-0.001 0.001c-0.791 0.78-1.418 1.724-1.825 2.778l-0.018 0.054c-0.395 1.019-0.669 2.181-0.744 3.882-0.082 1.712-0.101 2.256-0.101 6.602 0 4.344 0.019 4.888 0.094 6.595 0.075 1.701 0.35 2.869 0.744 3.882 0.426 1.11 1.055 2.057 1.849 2.837l0.001 0.001c0.8 0.813 1.77 1.443 2.832 1.843 1.019 0.395 2.182 0.67 3.882 0.744 1.707 0.075 2.251 0.094 6.595 0.094 4.346 0 4.89-0.019 6.595-0.094 1.701-0.074 2.869-0.349 3.882-0.742 2.157-0.85 3.833-2.526 4.664-4.628l0.019-0.055c0.394-1.019 0.669-2.182 0.744-3.882 0.075-1.707 0.093-2.251 0.093-6.595s-0.006-4.888-0.080-6.595zM29.088 22.474c-0.070 1.563-0.333 2.406-0.55 2.97-0.552 1.399-1.64 2.486-3.004 3.024l-0.036 0.012c-0.56 0.219-1.411 0.482-2.968 0.55-1.688 0.075-2.194 0.094-6.464 0.094-4.269 0-4.782-0.019-6.464-0.094-1.563-0.069-2.406-0.331-2.97-0.55-0.721-0.269-1.334-0.676-1.836-1.192l-0.001-0.001c-0.517-0.503-0.924-1.117-1.184-1.803l-0.011-0.034c-0.218-0.563-0.48-1.413-0.549-2.97-0.075-1.688-0.094-2.195-0.094-6.464 0-4.27 0.019-4.784 0.094-6.464 0.069-1.563 0.331-2.406 0.549-2.97 0.269-0.722 0.678-1.337 1.198-1.837l0.002-0.002c0.504-0.517 1.119-0.923 1.806-1.182l0.034-0.011c0.56-0.219 1.411-0.48 2.968-0.55 1.688-0.074 2.195-0.093 6.464-0.093 4.275 0 4.782 0.019 6.464 0.093 1.563 0.069 2.406 0.331 2.97 0.55 0.693 0.256 1.325 0.662 1.837 1.194 0.531 0.52 0.938 1.144 1.195 1.84 0.218 0.56 0.48 1.411 0.549 2.968 0.075 1.688 0.094 2.194 0.094 6.464 0 4.269-0.019 4.768-0.094 6.458z"></path>
<path d="M16.059 7.782c-4.539 0.002-8.218 3.682-8.219 8.221v0c0.091 4.471 3.737 8.060 8.221 8.060s8.13-3.589 8.221-8.052l0-0.009c-0.001-4.54-3.681-8.22-8.221-8.221h-0zM16.059 21.334c-2.945-0-5.332-2.388-5.332-5.333s2.388-5.333 5.333-5.333c0 0 0.001 0 0.001 0h-0c2.946 0 5.334 2.388 5.334 5.334s-2.388 5.334-5.334 5.334v0zM26.525 7.458c0 1.060-0.86 1.92-1.92 1.92s-1.92-0.86-1.92-1.92v0c0-1.060 0.86-1.92 1.92-1.92s1.92 0.86 1.92 1.92v0z"></path>
</symbol>
<symbol id="icon-linkedin" viewBox="0 0 32 32">
<path d="M31.992 32h0.008v-11.738c0-5.741-1.235-10.163-7.947-10.163-3.227 0-5.392 1.77-6.277 3.45h-0.093v-2.914h-6.365v21.363h6.627v-10.578c0-2.786 0.528-5.48 3.978-5.48 3.398 0 3.45 3.179 3.45 5.658v10.402h6.619zM0.528 10.635h6.635v21.365h-6.635v-21.365zM3.843 0c-2.123 0-3.843 1.721-3.843 3.843v0c0 2.12 1.722 3.878 3.843 3.878 2.12 0 3.842-1.757 3.842-3.878s-1.72-3.841-3.841-3.843h-0z"></path>
</symbol>
<symbol id="icon-Logo" viewBox="0 0 39 32">
<path d="M22.371 9.64l-0.749-0.571c-0.097-0.079-0.223-0.127-0.36-0.127-0.177 0-0.335 0.080-0.44 0.206l-0.001 0.001-10.36 11.897 0.16 0.177 2.566-2.366c-0.146-0.060-0.247-0.201-0.247-0.366 0-0.218 0.177-0.394 0.394-0.394 0.002 0 0.005 0 0.007 0h-0c0 0 0 0 0 0 0.174 0 0.321 0.114 0.371 0.272l0.001 0.003 3.383-3.137c0.050-0.040 0.113-0.065 0.183-0.065s0.133 0.024 0.183 0.065l-0.001-0 0.171 0.126c0.046 0.033 0.104 0.053 0.166 0.053 0.086 0 0.164-0.038 0.216-0.099l0-0 4.423-4.96c0.081-0.085 0.132-0.2 0.132-0.328 0-0.159-0.078-0.3-0.199-0.386l-0.001-0.001z"></path>
<path d="M27.24 12.989c-2.14 1.539-4.64 2.746-7.335 3.477l-0.162 0.037c-2.401 0.638-5.193 1.072-8.063 1.208l-0.092 0.003c0.055 0.406 0.155 0.805 0.297 1.189 1.554 1.406 13.257-0.994 15.543-3.771 0.486-0.577-0.189-2.143-0.189-2.143zM13.343 18.857c-0.215 0-0.389-0.174-0.389-0.389s0.174-0.389 0.389-0.389c0.215 0 0.389 0.174 0.389 0.389v0c0 0.002 0 0.004 0 0.006 0 0.211-0.171 0.382-0.382 0.382-0.002 0-0.004-0-0.007-0h0zM2.286 12.166l0.091-0.394 1.486 0.337c0.123 0.226 0.198 0.475 0.223 0.731 0.029 0.271 0.011 0.546-0.051 0.811-0.079 0.386-0.252 0.722-0.493 0.997l0.002-0.002c-0.232 0.261-0.529 0.459-0.866 0.568l-0.014 0.004c-0.184 0.059-0.395 0.093-0.615 0.093-0.165 0-0.326-0.019-0.48-0.055l0.014 0.003c-0.373-0.082-0.697-0.259-0.955-0.504l0.001 0.001c-0.256-0.236-0.445-0.54-0.54-0.884l-0.003-0.013c-0.049-0.171-0.077-0.368-0.077-0.571s0.028-0.4 0.081-0.587l-0.004 0.015c0.062-0.28 0.171-0.547 0.326-0.789 0.147-0.22 0.339-0.399 0.563-0.527l0.008-0.004 0.206 0.314c-0.391 0.243-0.669 0.637-0.753 1.099l-0.002 0.010c-0.031 0.125-0.049 0.268-0.049 0.416 0 0.171 0.024 0.337 0.069 0.494l-0.003-0.013c0.077 0.278 0.229 0.529 0.44 0.726 0.217 0.21 0.488 0.354 0.783 0.417 0.286 0.080 0.589 0.080 0.874 0 0.283-0.095 0.524-0.255 0.713-0.462l0.001-0.001c0.2-0.23 0.337-0.507 0.4-0.806 0.036-0.132 0.056-0.284 0.056-0.441 0-0.234-0.046-0.458-0.129-0.662l0.004 0.012-1.309-0.331zM5.52 8.571l-1.331 1.777 0.571 1.023-0.263 0.354-2.114-3.857 0.246-0.337 4.303 0.926-0.269 0.354-1.143-0.24zM5.143 8.48l-2.286-0.514 1.143 2.051 1.143-1.537zM5.143 4.886l0.343-0.257 2.177 2.914 1.794-1.343 0.217 0.291-2.131 1.594-2.4-3.2zM8.743 2.503l0.383-0.171 1.509 3.303 2.040-0.926 0.149 0.331-2.423 1.103-1.657-3.64zM16.274 3.817l0.086 0.36-2.754 0.646-0.914-3.897 2.674-0.623 0.080 0.354-2.286 0.531 0.326 1.383 2.011-0.474 0.086 0.354-2.017 0.469 0.343 1.446 2.366-0.549zM20.2 3.96l-0.954-1.257c-0.107 0.006-0.213 0.006-0.32 0l-1.074 0.034 0.040 1.269h-0.423l-0.131-4 1.52-0.006c0.050-0.005 0.108-0.008 0.166-0.008 0.392 0 0.755 0.125 1.051 0.337l-0.005-0.004c0.287 0.232 0.469 0.585 0.469 0.979 0 0.005-0 0.011-0 0.016v-0.001c0.017 0.282-0.057 0.563-0.211 0.8-0.163 0.224-0.39 0.394-0.653 0.483l-0.009 0.003 1 1.337-0.463 0.017zM19.8 2.080c0.181-0.167 0.295-0.405 0.295-0.67 0-0.028-0.001-0.055-0.004-0.082l0 0.004c0-0.006 0-0.012 0-0.019 0-0.286-0.131-0.542-0.336-0.711l-0.002-0.001c-0.218-0.15-0.488-0.239-0.779-0.239-0.041 0-0.083 0.002-0.123 0.005l0.005-0-1.086 0.040 0.069 2 1.063-0.034c0.015 0.001 0.033 0.001 0.051 0.001 0.321 0 0.616-0.11 0.849-0.295l-0.003 0.002zM23.223 2.897l-0.206 1.366-0.417-0.063 0.211-1.343-1.183-2.857 0.446 0.069 1.011 2.434 1.714-2.017 0.4 0.086-1.977 2.326zM28.874 2.657l0.497 0.646-0.217 0.171-0.497-0.663-0.314 0.749-0.24-0.103 0.32-0.749-0.823 0.109v-0.274l0.811-0.091-0.503-0.646 0.223-0.171 0.44 0.651 0.309-0.754 0.246 0.103-0.291 0.766 0.823-0.114v0.28l-0.783 0.091zM30.783 7.263c-0.129-0.197-0.217-0.431-0.245-0.684l-0.001-0.007 0.337-0.149c0.025 0.226 0.099 0.445 0.217 0.64 0.127 0.219 0.294 0.413 0.491 0.571 0.197 0.189 0.452 0.318 0.736 0.359l0.007 0.001c0.017 0.002 0.037 0.003 0.057 0.003 0.193 0 0.365-0.087 0.479-0.224l0.001-0.001c0.083-0.091 0.133-0.212 0.133-0.345 0-0.015-0.001-0.030-0.002-0.045l0 0.002c-0.020-0.148-0.069-0.281-0.14-0.399l0.003 0.005c-0.121-0.197-0.236-0.363-0.359-0.523l0.010 0.014c-0.141-0.182-0.277-0.388-0.398-0.603l-0.013-0.026c-0.089-0.154-0.144-0.339-0.149-0.536l-0-0.001c0-0.211 0.079-0.416 0.223-0.571 0.123-0.148 0.283-0.261 0.467-0.324l0.007-0.002c0.095-0.029 0.204-0.045 0.317-0.045s0.222 0.016 0.325 0.047l-0.008-0.002c0.28 0.093 0.522 0.234 0.728 0.414l-0.002-0.002c0.176 0.146 0.331 0.315 0.463 0.503 0.121 0.174 0.212 0.367 0.269 0.571l-0.326 0.171c-0.062-0.205-0.148-0.383-0.256-0.544l0.005 0.007c-0.111-0.15-0.238-0.279-0.379-0.391l-0.004-0.003c-0.194-0.188-0.448-0.314-0.731-0.348l-0.006-0.001c-0.015-0.001-0.033-0.002-0.051-0.002-0.197 0-0.372 0.092-0.485 0.235l-0.001 0.001c-0.083 0.088-0.134 0.207-0.134 0.337 0 0.018 0.001 0.036 0.003 0.053l-0-0.002c0.013 0.144 0.060 0.283 0.137 0.406 0.080 0.131 0.194 0.303 0.349 0.509 0.153 0.194 0.29 0.401 0.411 0.617 0.091 0.154 0.148 0.338 0.154 0.535l0 0.002c0 0.211-0.079 0.416-0.223 0.571-0.123 0.15-0.286 0.263-0.473 0.324l-0.007 0.002c-0.095 0.030-0.204 0.047-0.317 0.047s-0.222-0.017-0.325-0.049l0.008 0.002c-0.282-0.093-0.526-0.233-0.734-0.414l0.003 0.002c-0.228-0.199-0.418-0.433-0.565-0.695l-0.007-0.013zM36.531 8.097l-0.806-1.143 0.297-0.211 1.857 2.651-0.297 0.211-0.806-1.143-2.983 2.086-0.24-0.349 2.977-2.103zM35.251 12.794c0.107-0.357 0.306-0.659 0.569-0.89l0.002-0.002c0.256-0.23 0.573-0.396 0.924-0.472l0.013-0.002c0.139-0.033 0.299-0.052 0.463-0.052 0.218 0 0.429 0.034 0.626 0.096l-0.015-0.004c0.348 0.117 0.642 0.314 0.873 0.57l0.002 0.002c0.238 0.272 0.409 0.609 0.483 0.981l0.002 0.014c0.045 0.165 0.071 0.355 0.071 0.551s-0.026 0.386-0.074 0.567l0.004-0.015c-0.111 0.356-0.309 0.657-0.569 0.89l-0.002 0.002c-0.373 0.335-0.87 0.54-1.414 0.54-0.224 0-0.439-0.035-0.641-0.099l0.015 0.004c-0.35-0.111-0.646-0.309-0.872-0.569l-0.002-0.002c-0.237-0.271-0.407-0.606-0.483-0.975l-0.002-0.014c-0.037-0.152-0.059-0.326-0.059-0.506 0-0.219 0.032-0.43 0.092-0.63l-0.004 0.016zM36 14.611c0.191 0.217 0.438 0.377 0.714 0.463 0.148 0.044 0.318 0.070 0.493 0.070 0.446 0 0.854-0.165 1.166-0.438l-0.002 0.002c0.211-0.194 0.367-0.44 0.451-0.714 0.042-0.147 0.066-0.315 0.066-0.489 0-0.456-0.166-0.872-0.44-1.194l0.002 0.003c-0.195-0.213-0.444-0.374-0.726-0.46l-0.012-0.003c-0.132-0.036-0.284-0.057-0.44-0.057s-0.308 0.021-0.452 0.060l0.012-0.003c-0.303 0.060-0.568 0.199-0.778 0.395l0.001-0.001c-0.208 0.191-0.364 0.434-0.448 0.709l-0.003 0.011c-0.037 0.133-0.058 0.285-0.058 0.443s0.021 0.31 0.061 0.455l-0.003-0.012c0.067 0.296 0.205 0.553 0.395 0.761l-0.001-0.001zM34.817 19.429l1.48-0.571c0-0.103 0.034-0.206 0.063-0.314l0.28-1.034-1.211-0.314 0.109-0.406 3.863 1.034-0.389 1.446c-0.092 0.435-0.33 0.803-0.659 1.060l-0.004 0.003c-0.197 0.138-0.441 0.22-0.704 0.22-0.136 0-0.268-0.022-0.39-0.063l0.009 0.003c-0.561-0.125-0.974-0.617-0.977-1.205v-0l-1.577 0.571 0.109-0.429zM36.731 19.589c0.179 0.32 0.515 0.532 0.901 0.532 0.197 0 0.381-0.055 0.538-0.152l-0.004 0.003c0.246-0.199 0.421-0.478 0.484-0.797l0.001-0.009 0.274-1.029-1.937-0.52-0.274 1.029c-0.047 0.134-0.075 0.288-0.075 0.448 0 0.178 0.034 0.348 0.095 0.504l-0.003-0.009zM32.766 23.109l-0.291-0.223 1.714-2.257 3.189 2.417-1.657 2.189-0.291-0.223 1.4-1.846-1.143-0.863-1.251 1.651-0.286-0.217 1.28-1.651-1.183-0.897-1.48 1.92zM31.429 27.663l-0.817 0.046v-0.274l0.817-0.006-0.44-0.68 0.223-0.143 0.434 0.686 0.354-0.766 0.246 0.131-0.389 0.72 0.817-0.046v0.28h-0.829l0.44 0.68-0.223 0.143-0.434-0.686-0.377 0.743-0.24-0.137 0.417-0.691zM24 27.206l0.691 0.383c0.235-0.446 0.642-0.774 1.131-0.9l0.012-0.003c0.161-0.052 0.346-0.082 0.538-0.082 0.058 0 0.116 0.003 0.173 0.008l-0.007-0.001c0.216 0.017 0.411 0.092 0.575 0.208l-0.003-0.002c0.152 0.114 0.265 0.274 0.32 0.457 0.069 0.226 0.057 0.469-0.034 0.686-0.151 0.307-0.342 0.57-0.571 0.794l-0 0c0.189 0.101 0.363 0.226 0.52 0.371 0.108 0.111 0.188 0.246 0.234 0.394 0.015 0.056 0.023 0.12 0.023 0.187 0 0.183-0.065 0.352-0.173 0.483l0.001-0.001c-0.151 0.216-0.374 0.373-0.632 0.438l-0.008 0.002c-0.229 0.087-0.48 0.087-0.709 0-0.204-0.089-0.356-0.266-0.41-0.481l-0.001-0.005c-0.023-0.070-0.036-0.151-0.036-0.235 0-0.122 0.028-0.238 0.078-0.341l-0.002 0.005c0.138-0.27 0.308-0.502 0.509-0.703v0l-1.377-0.766c-0.053 0.269-0.064 0.545-0.034 0.817h-0.349c-0.004-0.057-0.007-0.124-0.007-0.191 0-0.287 0.044-0.563 0.126-0.823l-0.005 0.019-0.72-0.4 0.149-0.32zM24.994 27.777l1.514 0.84c0.194-0.186 0.357-0.403 0.479-0.644l0.006-0.014c0.063-0.166 0.063-0.349 0-0.514-0.054-0.202-0.203-0.361-0.396-0.427l-0.004-0.001c-0.109-0.038-0.235-0.060-0.366-0.060s-0.257 0.022-0.374 0.063l0.008-0.002c-0.398 0.107-0.717 0.378-0.888 0.735l-0.004 0.008 0.023 0.017zM27.143 30.063c0.045-0.075 0.072-0.165 0.072-0.262 0-0.058-0.009-0.113-0.027-0.165l0.001 0.004c-0.037-0.117-0.1-0.217-0.183-0.297l-0-0c-0.138-0.117-0.294-0.222-0.46-0.308l-0.014-0.006c-0.169 0.168-0.319 0.355-0.444 0.559l-0.007 0.013c-0.042 0.078-0.067 0.17-0.067 0.268 0 0.055 0.008 0.108 0.022 0.158l-0.001-0.004c0.038 0.134 0.129 0.242 0.249 0.302l0.003 0.001c0.146 0.055 0.306 0.055 0.451 0 0.159-0.043 0.292-0.139 0.381-0.266l0.001-0.002 0.023 0.006zM17.034 31.611l0.080-4h0.406l-0.063 3.2 1.623-2.663h0.2l1.52 2.709 0.057-3.183h0.406l-0.074 4h-0.349l-1.68-2.989-1.777 2.931-0.349-0.006zM15.046 27.429c0.373 0.356 0.604 0.856 0.604 1.411 0 0.202-0.031 0.397-0.088 0.58l0.004-0.014c-0.1 0.367-0.289 0.682-0.543 0.931l-0 0c-0.246 0.242-0.558 0.419-0.907 0.5l-0.013 0.003c-0.147 0.035-0.315 0.054-0.488 0.054-0.221 0-0.435-0.032-0.636-0.093l0.016 0.004c-0.375-0.093-0.699-0.275-0.961-0.521l0.001 0.001c-0.251-0.24-0.436-0.546-0.528-0.889l-0.003-0.013c-0.039-0.152-0.061-0.326-0.061-0.505 0-0.59 0.242-1.123 0.633-1.506l0-0c0.242-0.242 0.548-0.421 0.889-0.511l0.014-0.003c0.146-0.034 0.313-0.054 0.485-0.054 0.22 0 0.433 0.032 0.633 0.092l-0.016-0.004c0.378 0.098 0.704 0.285 0.966 0.538l-0.001-0.001zM13.097 27.229c-0.291 0.069-0.541 0.213-0.737 0.411l-0 0c-0.205 0.204-0.356 0.461-0.432 0.748l-0.003 0.012c-0.080 0.286-0.080 0.589 0 0.874 0.067 0.278 0.212 0.531 0.417 0.731 0.209 0.204 0.469 0.357 0.759 0.437l0.012 0.003c0.133 0.035 0.286 0.055 0.443 0.055s0.31-0.020 0.455-0.058l-0.012 0.003c0.28-0.069 0.536-0.211 0.743-0.411 0.203-0.204 0.355-0.461 0.432-0.748l0.003-0.012c0.038-0.132 0.060-0.283 0.060-0.44s-0.022-0.308-0.063-0.452l0.003 0.012c-0.078-0.288-0.225-0.535-0.423-0.731l-0-0c-0.21-0.204-0.472-0.356-0.765-0.432l-0.012-0.003c-0.132-0.038-0.283-0.060-0.44-0.060s-0.308 0.022-0.452 0.063l0.012-0.003zM8.771 24.571l0.154 1.571c0.098 0.042 0.194 0.090 0.286 0.143l0.931 0.537 0.629-1.109 0.371 0.211-2 3.446-1.303-0.749c-0.385-0.196-0.685-0.514-0.853-0.903l-0.005-0.012c-0.044-0.123-0.070-0.265-0.070-0.413 0-0.25 0.073-0.483 0.198-0.678l-0.003 0.005c0.133-0.25 0.343-0.451 0.6-0.571 0.15-0.064 0.324-0.101 0.507-0.101 0.112 0 0.221 0.014 0.325 0.040l-0.009-0.002-0.166-1.68 0.406 0.263zM8.12 26.377c-0.411 0.106-0.719 0.449-0.771 0.871l-0 0.005c-0.005 0.036-0.007 0.078-0.007 0.121 0 0.103 0.015 0.202 0.043 0.296l-0.002-0.007c0.134 0.296 0.366 0.536 0.657 0.68l0.92 0.531 1-1.714-0.92-0.531c-0.233-0.176-0.527-0.282-0.846-0.282-0.026 0-0.052 0.001-0.077 0.002l0.004-0v0.029zM5.389 21.891l0.257-0.257 1.971 2.029-2.857 2.789-1.903-1.966 0.263-0.257 1.617 1.663 0.977-0.989-1.417-1.474 0.274-0.263 1.446 1.486 1.063-1.034-1.691-1.726zM1.143 19.646l0.137-0.789 0.269 0.040-0.154 0.811 0.76-0.28 0.091 0.251-0.771 0.263 0.634 0.537-0.183 0.206-0.611-0.571-0.143 0.811-0.274-0.051 0.16-0.811-0.766 0.274-0.086-0.223 0.766-0.269-0.634-0.531 0.189-0.206 0.617 0.537z"></path>
</symbol>
<symbol id="icon-menu" viewBox="0 0 48 32">
<path d="M0 5.334v-5.334h48v5.334h-48zM0 18.666h48v-5.332h-48v5.332zM0 32h48v-5.334h-48v5.334z"></path>
</symbol>
<symbol id="icon-plus" viewBox="0 0 32 32">
<path fill="#ff6c00" style="fill: var(--color2, #ff6c00)" d="M13.476 17.973h-11.058v-4.942h11.058v-11.339h4.996v11.332h11.083v4.942h-11.079v11.282h-4.999v-11.275z"></path>
</symbol>
<symbol id="icon-twitter" viewBox="0 0 32 32">
<path d="M32 6.078c-1.1 0.493-2.376 0.857-3.713 1.028l-0.068 0.007c1.36-0.817 2.382-2.078 2.873-3.579l0.013-0.046c-1.197 0.722-2.591 1.273-4.076 1.573l-0.084 0.014c-1.2-1.279-2.9-2.076-4.787-2.076-3.622 0-6.558 2.936-6.558 6.558 0 0.001 0 0.003 0 0.004v-0c0 0.52 0.043 1.021 0.152 1.496-5.454-0.266-10.28-2.88-13.522-6.861-0.564 0.949-0.899 2.092-0.902 3.313v0.001c0 2.272 1.171 4.286 2.914 5.451-1.091-0.030-2.107-0.325-2.994-0.823l0.033 0.017v0.072c0.003 3.165 2.236 5.807 5.213 6.44l0.043 0.008c-0.499 0.136-1.071 0.215-1.662 0.215-0.020 0-0.041-0-0.061-0l0.003 0c-0.419 0-0.843-0.024-1.242-0.112 0.85 2.598 3.261 4.509 6.13 4.57-2.215 1.746-5.045 2.8-8.122 2.8-0.004 0-0.008 0-0.013 0h0.001c-0.018 0-0.040 0-0.062 0-0.531 0-1.055-0.034-1.569-0.099l0.061 0.006c2.826 1.846 6.287 2.944 10.004 2.944 0.021 0 0.042-0 0.063-0h-0.003c12.072 0 18.672-10 18.672-18.669 0-0.288-0.010-0.57-0.024-0.848 1.299-0.936 2.39-2.064 3.258-3.355l0.030-0.047z"></path>
</symbol>
</defs>
</svg>
